<svg width="102" height="100" fill="none" xmlns="http://www.w3.org/2000/svg"><path d="M51 0s30-1 46 28H48s-9 0-17 11c-2 4-4 9-2 18L9 22S20 1 51 0z" fill="#E16B5A"/><path d="M95 75s-14 26-48 25l24-41s5-8 0-20c-3-4-12-8-22-11h48s12 21-2 47z" fill="#FFD464"/><path d="M7 75s-17-25 2-53l24 41s4 8 18 9c5 0 10 0 17-7l-21 35s-24 0-40-25z" fill="#74B340"/><ellipse cx="50.6" cy="50.4" rx="23.1" ry="22.7" fill="#fff"/><ellipse cx="50.6" cy="50.4" rx="18.3" ry="18" fill="#2995CC"/><path d="M51 32h-1c9 1 17 9 17 18 0 10-8 18-17 18h1c10 0 18-8 18-18s-8-18-18-18z" fill="#268CBF"/></svg>