<svg width="536" height="346" fill="none" xmlns="http://www.w3.org/2000/svg"><rect width="536" height="346" rx="8" fill="#E8EAF6"/><mask id="a" style="mask-type:alpha" maskUnits="userSpaceOnUse" x="0" y="0" width="536" height="346"><rect width="536" height="346" rx="8" fill="#fff"/></mask><g mask="url(#a)"><path fill="#242A45" d="M-3 0h547v59H-3z"/><g fill="#fff"><circle opacity=".2" cx="38.5" cy="30.2" r="16"/><circle opacity=".1" cx="499.5" cy="30.2" r="16"/><rect opacity=".8" x="69.5" y="20.2" width="120" height="6" rx="3"/><rect opacity=".3" x="69.5" y="34.2" width="64" height="6" rx="3"/></g><g><rect x="57" y="93" width="261" height="316" rx="8" fill="#fff"/><rect x="352" y="93" width="128" height="316" rx="8" fill="#fff"/><rect opacity=".5" x="135.5" y="131.2" width="120" height="6" rx="3" fill="#242A45"/></g></g><circle cx="104.5" cy="141.2" r="16" fill="#F98E5D"/><rect opacity=".3" x="372.5" y="115.2" width="88" height="6" rx="3" fill="#242A45"/><rect opacity=".3" x="372.5" y="135.2" width="88" height="6" rx="3" fill="#242A45"/><rect opacity=".3" x="372.5" y="155.2" width="88" height="6" rx="3" fill="#242A45"/><rect opacity=".3" x="372.5" y="175.2" width="88" height="6" rx="3" fill="#242A45"/><rect opacity=".3" x="372.5" y="209.2" width="88" height="6" rx="3" fill="#242A45"/><rect opacity=".3" x="372.5" y="229.2" width="88" height="6" rx="3" fill="#242A45"/><rect opacity=".3" x="372.5" y="249.2" width="88" height="6" rx="3" fill="#242A45"/><rect opacity=".3" x="135.5" y="145.2" width="64" height="6" rx="3" fill="#242A45"/><g><circle cx="104.5" cy="197.2" r="16" fill="#6AC6D6"/><rect opacity=".5" x="135.5" y="187.2" width="120" height="6" rx="3" fill="#242A45"/><rect opacity=".3" x="135.5" y="201.2" width="64" height="6" rx="3" fill="#242A45"/></g><g><circle cx="104.5" cy="253.2" r="16" fill="#A47ED4"/><rect opacity=".5" x="135.5" y="243.2" width="120" height="6" rx="3" fill="#242A45"/><rect opacity=".3" x="135.5" y="257.2" width="64" height="6" rx="3" fill="#242A45"/></g><g><circle cx="104.5" cy="309.2" r="16" fill="#EC7878"/><rect opacity=".5" x="135.5" y="299.2" width="120" height="6" rx="3" fill="#242A45"/><rect opacity=".3" x="135.5" y="313.2" width="64" height="6" rx="3" fill="#242A45"/></g></svg>