<svg width="440" height="380" fill="none" xmlns="http://www.w3.org/2000/svg"><rect width="350" height="346" rx="8" fill="#E8EAF6"/><mask id="a" style="mask-type:alpha" maskUnits="userSpaceOnUse" x="0" y="0" width="350" height="346"><rect width="350" height="346" rx="8" fill="#fff"/></mask><g mask="url(#a)"><path fill="#242A45" d="M-3 0h547v59H-3z"/><g fill="#fff"><circle opacity=".2" cx="38.5" cy="30.2" r="16"/><rect opacity=".8" x="69.5" y="20.2" width="120" height="6" rx="3"/><rect opacity=".3" x="69.5" y="34.2" width="64" height="6" rx="3"/></g></g><rect x="27" y="85" width="237" height="34" rx="8" fill="#fff"/><rect x="27" y="133" width="237" height="34" rx="8" fill="#fff"/><rect x="27" y="181" width="237" height="34" rx="8" fill="#fff"/><rect x="27" y="229" width="237" height="34" rx="8" fill="#fff"/><rect x="27" y="277" width="237" height="34" rx="8" fill="#fff"/><g><mask id="b" style="mask-type:alpha" maskUnits="userSpaceOnUse" x="90" y="83" width="350" height="296"><path fill-rule="evenodd" clip-rule="evenodd" d="M440 83H90v296h350V83z" fill="#fff"/></mask><g mask="url(#b)"><path fill-rule="evenodd" clip-rule="evenodd" d="M91 333l3 6c26 34 120 45 213 38a174 174 0 0 0 117-57c5-5 9-11 11-17 8-18 6-38-5-55-9-14-23-25-29-36-13-23 55-79 11-115-16-12-50-15-86-13-45 2-93 12-120 20-56 16-91 41-99 68s13 40 32 66c17 24-59 63-48 95z" fill="#3A499E"/></g><path fill-rule="evenodd" clip-rule="evenodd" d="M185 174l17-3 3 16-21 6 1-19z" fill="#306299"/><path fill-rule="evenodd" clip-rule="evenodd" d="M203 172s13 0 27-6l-6 12-19 6-2-12z" fill="#FA9E89"/><mask id="c" style="mask-type:alpha" maskUnits="userSpaceOnUse" x="280" y="85" width="158" height="220"><path fill-rule="evenodd" clip-rule="evenodd" d="M438 85H280v220h158V85z" fill="#fff"/></mask><g mask="url(#c)"><path opacity=".2" fill-rule="evenodd" clip-rule="evenodd" d="M281 137c8 40 146 102 153 168 7-18 5-38-5-55-9-14-21-25-28-37-12-22 52-78 11-114-15-12-46-15-80-13-11 2-58 15-51 51z" fill="#fff"/></g><path opacity=".1" fill-rule="evenodd" clip-rule="evenodd" d="M88 326c-1 8 3 13 4 15 22 33 144 44 227 37 43-3 78-26 100-50l-331-2z" fill="#000"/><path opacity=".1" fill-rule="evenodd" clip-rule="evenodd" d="M366 330s10 0 10 3c0 4-6 10-6 10l9-3 29-1-3 2-24 2c-1 1-15 11-17 11l-146 1s-15 0-18-4c-2-5-11-5-14-1-2 4-2 19-2 19l-7-2c-24-10-50-41-50-41l239 4z" fill="#000"/><path fill-rule="evenodd" clip-rule="evenodd" d="M397 291l-14 49s-3 2-4 0l10-50 8 1zM417 289l7 33-3 4-10-36 6-1z" fill="#162F44"/><path fill-rule="evenodd" clip-rule="evenodd" d="M205 300l-7 34-1 6h3l5 1s16-39 17-49c1-9-25-47-25-47l-29 2c-1 9 11 24 21 36 8 10 16 17 16 17z" fill="#F4F2F9"/><path fill-rule="evenodd" clip-rule="evenodd" d="M204 299l-7 39 2 1h1c0-4 11-38 11-45s-14-30-14-30l-8 18 15 17z" fill="#E0DFEA"/><path fill-rule="evenodd" clip-rule="evenodd" d="M166 249l29-2 1-48s-7-25-15-25c-4 0-9 2-11 6-2 3-3 7-3 13 1 13-1 49-1 55v1z" fill="#6397D9"/><path fill-rule="evenodd" clip-rule="evenodd" d="M174 245l-1-57 7-13-8-1-2 3c-2 3-3 7-3 13 1 13-1 50-1 56l8-1z" fill="#8BBFF7"/><path fill-rule="evenodd" clip-rule="evenodd" d="M174 190l21 40 1-18v-15l-18-7h-4z" fill="#306299"/><path fill-rule="evenodd" clip-rule="evenodd" d="M228 353h128c5 0 9-4 9-9V124c0-5-4-9-9-9H228c-5 0-9 4-9 9v220c0 5 4 9 9 9z" fill="#fff"/><path fill-rule="evenodd" clip-rule="evenodd" d="M227 146v89c0 2 1 3 3 3h124c2 0 3-1 3-3v-89c0-2-1-3-3-3H230c-2 0-3 1-3 3z" fill="#E4DCF1"/><path fill-rule="evenodd" clip-rule="evenodd" d="M291 167l2 1 3 15v2h-6c-2-1-2-4-2-6l2-4 1-8z" fill="#8E2B43"/><path fill-rule="evenodd" clip-rule="evenodd" d="M264 241h56s7-31-4-43c-3-3-6-5-10-6-11-4-25-1-28 8l-14 41z" fill="#4EC9B4"/><path fill-rule="evenodd" clip-rule="evenodd" d="M306 192s-2 7-7 8-10-3-10-9c0 0 5 0 5-3l1-2-3-7c0-2 1-12 5-13 3 0 7 0 10 5l-4 13c-2 4-3 6 3 8z" fill="#FA9E89"/><path opacity=".2" fill-rule="evenodd" clip-rule="evenodd" d="M230 116l133 186v42c0 5-4 9-8 9H235c-6 0-10-4-10-10V120c0-3 2-4 5-4z" fill="#F4F2F9"/><path fill-rule="evenodd" clip-rule="evenodd" d="M270 222l-7-30-11 2 11 44 7-16z" fill="#4EC9B4"/><path fill-rule="evenodd" clip-rule="evenodd" d="M261 191l-1-3s2-1 2-3v-6l-2 1-1 2-3-7-1-2v1l1 5-2-5v-1l-1 1 2 6h-1l-2-4v1l1 4-1-2h-1l1 5 3 5 1 3 5-1z" fill="#FA9E89"/><path fill-rule="evenodd" clip-rule="evenodd" d="M330 264h23l2-2v-4l-2-2h-23l-2 2v4l2 2zM298 264h23l2-2v-4l-2-2h-23l-2 2v4l2 2zM264 264h23l2-2v-4l-2-2h-23l-2 2v4l2 2zM232 264h23l2-2v-4l-2-2h-23l-2 2v4l2 2z" fill="#FFDEDD"/><path fill-rule="evenodd" clip-rule="evenodd" d="M235 283h117c2 0 3-1 3-2v-4c0-1-1-2-3-2H235c-2 0-3 1-3 2v4c0 1 1 2 3 2zM352 299c2 0 3-1 3-2v-4c0-1-1-2-3-2H235c-2 0-3 1-3 2v4c0 1 1 2 3 2h117zM235 315h117c2 0 3-1 3-2v-4c0-1-1-2-3-2H235c-2 0-3 1-3 2v4c0 1 1 2 3 2zM235 328h117c2 0 3-1 3-2v-4c0-1-1-2-3-2H235c-2 0-3 1-3 2v4c0 1 1 2 3 2z" fill="#F4F2F9"/><path fill-rule="evenodd" clip-rule="evenodd" d="M309 163s-6-9-18-3c-12 5 1 13 1 13s0-3 2-4v3l7 1 1-3v3l4 2-5 11v2c0 1 10 3 12 1 1-2-2-6-3-8 0-2 2-13-1-18z" fill="#FC516B"/><path fill-rule="evenodd" clip-rule="evenodd" d="M338 139h18c1 0 2-1 2-3s-1-3-2-3h-18c-1 0-2 1-2 3s1 3 2 3z" fill="#E4DCF1"/><path fill-rule="evenodd" clip-rule="evenodd" d="M312 211s-3 19-6 27h-16s-2-8 10-11c9-2 12-16 12-16zM280 206s-3 10-2 13c0 3 3 5 3 7l-2 10h-9s2 0 5-3c5-4 1-14 2-19l3-8zM270 222s0 8-2 7-1-14-2-18l-6-18 4-1 6 30z" fill="#44AD99"/><path fill-rule="evenodd" clip-rule="evenodd" d="M245 183l-4 4-5 3c-11 14-27 24-37 20-13-5-15-11-15-11l8-11s10 15 18 11 23-15 23-15v-6l2 1v2l6-7 1 1-3 4 1 1 4-6 1 1-4 6h1l3-3h1l-2 2-2 3 3-1v1zM173 146l4 29 12 2-1-2-2-3-1-4s6 1 7-2-1-18-1-18-3-10-18-2z" fill="#FA9E89"/><path fill-rule="evenodd" clip-rule="evenodd" d="M184 147s6 5 12 1c0 0-4-1-5-3 0 0 2 1 5-3 0 0-5 1-7-1-1-1-10-4-15 0-5 3-5 6-5 6s-3 1-3 3l8 16 1-6-2-3c-1-3 3-2 3-1l2-4v-3s-1-4 6-2z" fill="#261F27"/><path fill-rule="evenodd" clip-rule="evenodd" d="M172 279c3 15-3 73-3 73l6 1c26-60 20-109 20-109l-29 2v-1l6 34z" fill="#fff"/><path fill-rule="evenodd" clip-rule="evenodd" d="M204 337l8 6 3 1 1 3h-8l-13-5 2-6 7 1zM174 354l6 8c1 1 3 2 4 5 1 2-1 4-1 4s-5-1-8-4l-9-9 1-5 7 1z" fill="#6397D9"/><path fill-rule="evenodd" clip-rule="evenodd" d="M374 282c0 4 13 7 29 7s29-3 29-7-13-7-29-7-29 3-29 7z" fill="#224A7D"/><path fill-rule="evenodd" clip-rule="evenodd" d="M374 281c0 4 13 7 29 7s29-3 29-7-13-7-29-7-29 3-29 7z" fill="#6397D9"/><path fill-rule="evenodd" clip-rule="evenodd" d="M395 277c0 2 5 3 12 3s12-1 12-3-5-3-12-3-12 1-12 3zM432 280v4s0 2-5 4l1-4s4-2 4-4z" fill="#162F44"/><path fill-rule="evenodd" clip-rule="evenodd" d="M374 280v4s0 2 5 4l-2-5s-3-1-3-3z" fill="#8CC5F2"/><path fill-rule="evenodd" clip-rule="evenodd" d="M393 267l2 8c0 2 2 3 5 3h4l4-2v-1l2-5 1-3h-18z" fill="#FC516B"/><path fill-rule="evenodd" clip-rule="evenodd" d="M393 266l9 1 9-1-9-1-9 1z" fill="#9B293F"/><path fill-rule="evenodd" clip-rule="evenodd" d="M405 277h-1 3v-2l2-5v-1l-8 1h6l1 1c0 2-1 5-3 6z" fill="#F995A9"/><path fill-rule="evenodd" clip-rule="evenodd" d="M401 264l1 3s0-3 4-5c3-2 3-9 3-9l-3 3-1 2-1 1-2 1v2l-1 2z" fill="#51A595"/><path fill-rule="evenodd" clip-rule="evenodd" d="M406 270s1-23-12-30c0 0-3 1 1 7s1 10 3 11c1 2 4 2 4 4v4c1 1 3 2 3 4h1z" fill="#4EC9B4"/><path fill-rule="evenodd" clip-rule="evenodd" d="M406 266v1h1s0-3 4-5 3-9 3-9v1c0 7-4 8-6 9l-2 3z" fill="#41877A"/><path fill-rule="evenodd" clip-rule="evenodd" d="M186 177l-11-1-1 2s8 4 14 3l-2-4z" fill="#306299"/><path fill-rule="evenodd" clip-rule="evenodd" d="M201 191l-13 14s-16-15-16-20 7-14 16-5l13 11z" fill="#8CC5F2"/><path fill-rule="evenodd" clip-rule="evenodd" d="M169 353h2s12-42 8-74l-5-33-8 1c0 3 2 20 5 33 4 14-2 73-2 73z" fill="#F4F2F9"/><path fill-rule="evenodd" clip-rule="evenodd" d="M182 176h3l-2-3-1-4-3-1s0 7 3 8z" fill="#E6846F"/><path fill-rule="evenodd" clip-rule="evenodd" d="M328 179c0 10 8 19 18 19 4 0 8-1 11-4v-30c-3-3-7-4-11-4-10 0-18 9-18 19z" fill="#CEC3E2"/><path fill-rule="evenodd" clip-rule="evenodd" d="M328 180c0 10 7 18 17 18 4 0 7-1 10-4v-29c-3-3-6-4-10-4-10 0-17 8-17 19z" fill="#C3B8D8"/><path fill-rule="evenodd" clip-rule="evenodd" d="M302 196l2-1c1 0 5 1 10 6 6 6 1 11 3 14s0 9-1 13v10h2s7-29-4-40c-3-3-6-5-10-6l-2 4z" fill="#44AD99"/></g></svg>